<svg xmlns="http://www.w3.org/2000/svg" viewBox="0 0 32 32" fill="none">
  <!-- Background circle -->
  <circle cx="16" cy="16" r="15" fill="#0f172a" stroke="#22d3ee" stroke-width="2"/>
  
  <!-- Music note -->
  <path d="M12 8v12c0 1.1-.9 2-2 2s-2-.9-2-2 .9-2 2-2c.4 0 .7.1 1 .3V10l6-2v8c0 1.1-.9 2-2 2s-2-.9-2-2 .9-2 2-2c.4 0 .7.1 1 .3V6l-6 2z" fill="#22d3ee"/>
  
  <!-- Sound waves -->
  <path d="M22 12c0-1.1.4-2.1 1-2.8M22 20c0 1.1.4 2.1 1 2.8M24 10c0-2.2.9-4.2 2.3-5.7M24 22c0 2.2.9 4.2 2.3 5.7" stroke="#06b6d4" stroke-width="1.5" stroke-linecap="round" fill="none"/>
</svg>